# xmcd CD database file
#
# Track frame offsets:
#	150
#	39315
#	87177
#	107182
#	131767
#	137862
#	159825
#	194515
#	217380
#	239777
#
# Disc length: 3482 seconds
#
# Revision: 0
# Processed by: cddbd v1.5.2PL0 Copyright (c) Steve Scherf et al.
# Submitted via: CDex 1.51
#
DISCID=970d980a
DTITLE=Tim Garland - Tales from the Sun
DYEAR=1995
DGENRE=Jazz
TTITLE0=Tales from the Sun
TTITLE1=All That's Left
TTITLE2=Hwyl
TTITLE3=Bebê
TTITLE4=Introduction
TTITLE5=Re: Person I Knew
TTITLE6=Season of Faith
TTITLE7=Growing Young
TTITLE8=Serafina
TTITLE9=Dawn Bird
EXTD=YEAR: 1995
EXTT0=
EXTT1=
EXTT2=
EXTT3=
EXTT4=
EXTT5=
EXTT6=
EXTT7=
EXTT8=
EXTT9=
PLAYORDER=
